<svg width="128" height="128" viewBox="0 0 128 128" fill="none" xmlns="http://www.w3.org/2000/svg">
<rect x="0.5" y="0.5" width="127" height="127" fill="white"/>
<rect x="0.5" y="0.5" width="127" height="127" stroke="#CDCED3"/>
<path d="M32.2342 87.3092C38.5024 93.8953 47.3458 98 57.1411 98C66.9364 98 75.7798 93.8953 82.0481 87.3092H32.2305H32.2342Z" fill="#040822"/>
<path d="M82.0521 48.4374H26.1729C24.5717 51.7396 23.4796 55.3378 23 59.1282H82.0521V48.4374Z" fill="#040822"/>
<path d="M82.0522 39.6908C75.784 33.1047 66.9405 29 57.1452 29C47.35 29 38.5065 33.1047 32.2383 39.6908H82.0522Z" fill="#040822"/>
<path d="M82.0521 67.8718H23C23.4796 71.6623 24.5717 75.2604 26.1729 78.5626H82.0521V67.8718Z" fill="#040822"/>
<path d="M88.1172 48.4374C89.7184 51.7396 90.8104 55.3378 91.29 59.1282H105V48.4374H88.1172Z" fill="#040822"/>
<path d="M105 87.3092H82.0518V98H105V87.3092Z" fill="#040822"/>
<path d="M88.1172 78.5626H105V67.8718H91.29C90.8104 71.6623 89.7184 75.2604 88.1172 78.5626Z" fill="#040822"/>
<path d="M105 29H82.0518V39.6908H105V29Z" fill="#040822"/>
<path d="M91.2899 59.1258C90.8103 55.3354 89.7183 51.7373 88.1171 48.435C86.5528 45.2067 84.4978 42.2595 82.0518 39.6894V87.3079C84.4978 84.7379 86.5491 81.7906 88.1171 78.5623C89.7183 75.26 90.8103 71.6619 91.2899 67.8715C91.4707 66.4404 91.563 64.9797 91.563 63.4968C91.563 62.0139 91.4707 60.5569 91.2899 59.1221V59.1258Z" fill="#1D58FC"/>
</svg>
